<?xml version="1.0" encoding="UTF-8" standalone="no"?>
<!-- Created with Inkscape (http://www.inkscape.org/) -->

<svg
   xmlns:dc="http://purl.org/dc/elements/1.1/"
   xmlns:cc="http://creativecommons.org/ns#"
   xmlns:rdf="http://www.w3.org/1999/02/22-rdf-syntax-ns#"
   xmlns:svg="http://www.w3.org/2000/svg"
   xmlns="http://www.w3.org/2000/svg"
   xmlns:sodipodi="http://sodipodi.sourceforge.net/DTD/sodipodi-0.dtd"
   xmlns:inkscape="http://www.inkscape.org/namespaces/inkscape"
   id="svg5096"
   version="1.1"
   inkscape:version="0.91 r13725"
   width="192.20328"
   height="89.756004"
   viewBox="0 0 192.20328 89.756004"
   sodipodi:docname="produto organico.svg">
  <title
     id="title5227">Produto Organico Brasil</title>
  <metadata
     id="metadata5102">
    <rdf:RDF>
      <cc:Work
         rdf:about="">
        <dc:format>image/svg+xml</dc:format>
        <dc:type
           rdf:resource="http://purl.org/dc/dcmitype/StillImage" />
        <dc:title>Produto Organico Brasil</dc:title>
        <cc:license
           rdf:resource="http://creativecommons.org/publicdomain/zero/1.0/" />
        <dc:date>2018-01-18</dc:date>
        <dc:creator>
          <cc:Agent>
            <dc:title>Victor Westmann</dc:title>
          </cc:Agent>
        </dc:creator>
        <dc:rights>
          <cc:Agent>
            <dc:title>None :)</dc:title>
          </cc:Agent>
        </dc:rights>
        <dc:publisher>
          <cc:Agent>
            <dc:title>Victor Westmann</dc:title>
          </cc:Agent>
        </dc:publisher>
        <dc:source>Brasil</dc:source>
        <dc:relation>training drawing vector objects</dc:relation>
        <dc:language>Brazilian portuguese</dc:language>
        <dc:subject>
          <rdf:Bag>
            <rdf:li>organic food label</rdf:li>
          </rdf:Bag>
        </dc:subject>
        <dc:coverage>worldwide</dc:coverage>
        <dc:description>Use it as you will.</dc:description>
      </cc:Work>
      <cc:License
         rdf:about="http://creativecommons.org/publicdomain/zero/1.0/">
        <cc:permits
           rdf:resource="http://creativecommons.org/ns#Reproduction" />
        <cc:permits
           rdf:resource="http://creativecommons.org/ns#Distribution" />
        <cc:permits
           rdf:resource="http://creativecommons.org/ns#DerivativeWorks" />
      </cc:License>
    </rdf:RDF>
  </metadata>
  <defs
     id="defs5100" />
  <sodipodi:namedview
     pagecolor="#ffffff"
     bordercolor="#666666"
     borderopacity="1"
     objecttolerance="10"
     gridtolerance="10"
     guidetolerance="10"
     inkscape:pageopacity="0"
     inkscape:pageshadow="2"
     inkscape:window-width="1920"
     inkscape:window-height="1018"
     id="namedview5098"
     showgrid="false"
     inkscape:zoom="2.4524439"
     inkscape:cx="62.940087"
     inkscape:cy="42.542587"
     inkscape:window-x="-8"
     inkscape:window-y="-8"
     inkscape:window-maximized="1"
     inkscape:current-layer="svg5096"
     showguides="false"
     fit-margin-top="0"
     fit-margin-left="0"
     fit-margin-right="0"
     fit-margin-bottom="0" />
  <g
     id="produto_organico_brasil"
     transform="translate(0.35261468,-100.33293)"
     inkscape:label="#g5212">
    <path
       inkscape:connector-curvature="0"
       id="path5106"
       d="M 35.421875,100.76953 A 35.339176,35.119167 0 0 0 0.08398437,135.88867 35.339176,35.119167 0 0 0 16.507812,165.51172 l -5.365234,6.22851 c 0,0 -1.2337486,1.63984 -0.990234,3.25977 0.243514,1.61993 2.050035,4.1364 3.589844,5.32422 1.539808,1.18782 3.487958,1.78353 4.953124,1.73242 1.465168,-0.0511 3.259766,-1.40234 3.259766,-1.40234 l 6.726563,-7.0586 a 44.228348,24.793659 0 0 0 41.283203,16.05664 44.228348,24.793659 0 0 0 42.351566,-17.67968 l 57.97461,0 13.05468,0 c 4.46925,0 8.06836,-3.59912 8.06836,-8.06836 l 0,-13.05469 0,-7.33203 0,-11.14844 c 0,-11.70129 -9.42175,-21.12109 -21.12304,-21.12109 l -109.705082,0 A 35.339176,35.119167 0 0 0 35.421875,100.76953 Z"
       style="color:#000000;clip-rule:nonzero;display:inline;overflow:visible;visibility:visible;opacity:1;isolation:auto;mix-blend-mode:normal;color-interpolation:sRGB;color-interpolation-filters:linearRGB;solid-color:#000000;solid-opacity:1;fill:none;fill-opacity:1;fill-rule:evenodd;stroke:#000000;stroke-width:0.87319809;stroke-linecap:round;stroke-linejoin:round;stroke-miterlimit:4;stroke-dasharray:none;stroke-dashoffset:0;stroke-opacity:1;color-rendering:auto;image-rendering:auto;shape-rendering:auto;text-rendering:auto;enable-background:accumulate" />
    <path
       sodipodi:nodetypes="cccccccc"
       inkscape:connector-curvature="0"
       id="path5124"
       d="m 35.369141,104.45508 c -17.229294,-4.8e-4 -32.7447637,16.24089 -30.9487815,32.83737 2.1272949,11.21266 7.5372295,19.43858 20.9530335,25.59448 1.059549,-1.3456 1.828522,-1.84579 3.212545,-2.81271 C 19.123949,155.53848 13.13639,146.2361 13.123047,136.05078 13.122733,121.21155 25.60372,109.18178 41,109.18164 c 5.98618,0.0106 11.80984,1.87805 16.609375,5.32617 -5.857656,-6.41878 -13.871278,-10.04099 -22.240234,-10.05273 z"
       style="color:#000000;clip-rule:nonzero;display:inline;overflow:visible;visibility:visible;opacity:1;isolation:auto;mix-blend-mode:normal;color-interpolation:sRGB;color-interpolation-filters:linearRGB;solid-color:#000000;solid-opacity:1;fill:#00913f;fill-opacity:1;fill-rule:evenodd;stroke:none;stroke-width:1;stroke-linecap:round;stroke-linejoin:round;stroke-miterlimit:4;stroke-dasharray:none;stroke-dashoffset:0;stroke-opacity:1;color-rendering:auto;image-rendering:auto;shape-rendering:auto;text-rendering:auto;enable-background:accumulate" />
    <g
       transform="translate(0,100)"
       id="g5178">
      <text
         xml:space="preserve"
         style="font-style:normal;font-variant:normal;font-weight:bold;font-stretch:normal;font-size:8.32321739px;line-height:50%;font-family:Calibri;-inkscape-font-specification:'Calibri, Bold';text-align:start;letter-spacing:0px;word-spacing:0px;writing-mode:lr-tb;text-anchor:start;fill:#000000;fill-opacity:1;stroke:none;stroke-width:1px;stroke-linecap:butt;stroke-linejoin:miter;stroke-opacity:1"
         x="62.210796"
         y="24.704771"
         id="text5132"
         sodipodi:linespacing="50%"
         transform="scale(1.0083683,0.9917011)"><tspan
           sodipodi:role="line"
           id="tspan5134"
           x="62.210796"
           y="24.704771"
           style="font-style:normal;font-variant:normal;font-weight:bold;font-stretch:normal;font-size:8.32321739px;line-height:50%;font-family:Arial;-inkscape-font-specification:'Arial, Bold';text-align:start;writing-mode:lr-tb;text-anchor:start">PRODUTO</tspan></text>
      <g
         id="g5173">
        <path
           id="text5136"
           d="m 40.894531,16.585938 c -3.171457,0 -5.969167,0.522275 -8.396484,1.568359 -1.824917,0.775545 -3.509347,1.967067 -5.050781,3.572265 -1.523717,1.605199 -2.7274,3.417476 -3.613282,5.4375 -1.187082,2.741463 -1.78125,6.131826 -1.78125,10.171876 0,6.312577 1.709402,11.271718 5.128907,14.878906 2.058591,2.160721 4.555569,3.659595 7.474609,4.519531 3.944387,-2.295368 7.483626,-4.150711 12.089844,-5.533203 3.004968,-0.9019 6.691696,-1.550159 10.191406,-1.958984 1.937018,-3.245583 2.90625,-7.276755 2.90625,-12.095704 0,-6.456865 -1.726701,-11.497823 -5.181641,-15.123046 -3.437222,-3.625224 -8.027062,-5.4375 -13.767578,-5.4375 z m 0.08008,6.84375 c 3.242328,0 5.838169,1.119012 7.78711,3.355468 1.966658,2.236456 2.951172,5.626819 2.951172,10.171875 0,4.599164 -1.011439,8.052728 -3.03125,10.361328 -2.002094,2.290564 -4.571009,3.435547 -7.707032,3.435547 -3.136022,0 -5.722237,-1.15429 -7.759765,-3.46289 -2.037529,-2.326636 -3.056641,-5.733661 -3.056641,-10.22461 0,-4.563092 0.992187,-7.97207 2.976563,-10.226562 1.984375,-2.272528 4.597515,-3.410156 7.839843,-3.410156 z"
           style="font-style:normal;font-variant:normal;font-weight:bold;font-stretch:normal;font-size:54.91531754px;line-height:50%;font-family:Calibri;-inkscape-font-specification:'Calibri, Bold';text-align:start;letter-spacing:0px;word-spacing:0px;writing-mode:lr-tb;text-anchor:start;fill:#000000;fill-opacity:1;stroke:none;stroke-width:1px;stroke-linecap:butt;stroke-linejoin:miter;stroke-opacity:1"
           inkscape:connector-curvature="0" />
        <text
           transform="scale(0.99113676,1.0089425)"
           sodipodi:linespacing="50%"
           id="text5140"
           y="46.993355"
           x="62.082932"
           style="font-style:normal;font-variant:normal;font-weight:bold;font-stretch:normal;font-size:26.48754883px;line-height:50%;font-family:Calibri;-inkscape-font-specification:'Calibri, Bold';text-align:start;letter-spacing:0px;word-spacing:0px;writing-mode:lr-tb;text-anchor:start;fill:#000000;fill-opacity:1;stroke:none;stroke-width:1px;stroke-linecap:butt;stroke-linejoin:miter;stroke-opacity:1"
           xml:space="preserve"><tspan
             style="font-style:normal;font-variant:normal;font-weight:bold;font-stretch:normal;font-size:26.48754883px;line-height:50%;font-family:Arial;-inkscape-font-specification:'Arial, Bold';text-align:start;writing-mode:lr-tb;text-anchor:start;fill:#000000"
             y="46.993355"
             x="62.082932"
             id="tspan5142"
             sodipodi:role="line">RGÂNICO</tspan></text>
      </g>
      <text
         transform="scale(0.99113676,1.0089425)"
         sodipodi:linespacing="50%"
         id="text5144"
         y="64.504425"
         x="122.89934"
         style="font-style:normal;font-variant:normal;font-weight:bold;font-stretch:normal;font-size:16.95720482px;line-height:50%;font-family:Calibri;-inkscape-font-specification:'Calibri, Bold';text-align:start;letter-spacing:0px;word-spacing:0px;writing-mode:lr-tb;text-anchor:start;fill:#000000;fill-opacity:1;stroke:none;stroke-width:1px;stroke-linecap:butt;stroke-linejoin:miter;stroke-opacity:1"
         xml:space="preserve"><tspan
           style="font-style:normal;font-variant:normal;font-weight:bold;font-stretch:normal;font-size:16.95720482px;line-height:50%;font-family:Arial;-inkscape-font-specification:'Arial, Bold';text-align:start;writing-mode:lr-tb;text-anchor:start;fill:#000000"
           y="64.504425"
           x="122.89934"
           id="tspan5146"
           sodipodi:role="line">BRASIL</tspan></text>
    </g>
    <path
       sodipodi:nodetypes="cczzzzzzzzccssssssssssssssc"
       inkscape:connector-curvature="0"
       id="path5148"
       d="m 18.881069,175.98532 -2.087811,-0.72619 c 0,0 3.833123,-4.16154 7.080401,-6.89885 3.247278,-2.73731 8.335115,-6.64907 12.617638,-9.16821 4.282523,-2.51915 7.969122,-4.51419 12.88996,-5.99111 4.920838,-1.47692 11.676901,-2.27998 16.430161,-2.45091 4.75326,-0.17093 7.508446,0.0504 11.891443,0.90774 4.382997,0.85739 10.298168,3.05603 14.160802,4.53872 3.862634,1.48269 6.666516,3.05244 9.077437,4.08485 2.41092,1.03241 3.69743,1.92675 5.35569,2.17858 1.65826,0.25184 4.26639,-0.36309 4.26639,-0.36309 l 3.08633,-1.36162 c 0,0 -2.79559,4.99583 -4.62949,7.17118 -1.96003,2.32494 -4.31113,4.31323 -6.7173,6.17265 -2.16502,1.67308 -4.466507,3.19489 -6.898857,4.44795 -2.837128,1.46159 -5.840983,2.61657 -8.895888,3.5402 -3.078839,0.93086 -6.253045,1.56614 -9.440535,1.99703 -3.484632,0.47107 -7.017725,0.80775 -10.529827,0.63542 -3.641942,-0.1787 -7.289442,-0.74667 -10.80215,-1.72471 -3.805302,-1.0595 -7.446055,-2.69069 -10.983698,-4.44794 -2.965084,-1.47285 -5.801562,-3.21217 -8.532791,-5.08337 -1.458073,-0.99894 -2.751544,-2.22103 -4.175621,-3.26788 -0.858845,-0.63133 -1.597004,-1.56242 -2.632457,-1.81548 -0.710923,-0.17375 -1.492672,0.0171 -2.178585,0.27232 -1.022498,0.38042 -1.857697,1.15136 -2.723231,1.81549 -1.054608,0.80921 -2.048446,1.69971 -2.995554,2.63245 -0.931023,0.9169 -2.632457,2.90478 -2.632457,2.90478 z"
       style="fill:#00923f;fill-opacity:1;fill-rule:evenodd;stroke:none;stroke-width:1px;stroke-linecap:butt;stroke-linejoin:miter;stroke-opacity:1" />
    <path
       sodipodi:nodetypes="ssssssssssscssssssssssssssss"
       inkscape:connector-curvature="0"
       id="path5153"
       d="m 32.722461,163.79001 c 1.272739,0.0919 2.566543,0.0205 3.822718,-0.20388 2.206019,-0.39397 4.262012,-1.3916 6.422165,-1.98781 2.42702,-0.66988 4.870894,-1.28941 7.339618,-1.78394 2.344412,-0.46963 4.703977,-0.90079 7.08477,-1.12133 1.827787,-0.16932 3.669256,-0.17679 5.504713,-0.15291 2.211693,0.0288 4.432417,0.0732 6.626043,0.35679 1.668795,0.21574 3.320593,0.57688 4.944048,1.01939 2.182333,0.59484 4.342781,1.30143 6.422166,2.19169 1.690564,0.7238 3.329332,1.41353 4.944048,2.29363 1.476567,0.8048 2.995353,1.73244 4.332413,2.75236 0.248349,0.18944 0.662604,0.6626 0.662604,0.6626 0,0 -1.599036,-0.71344 -2.344601,-1.01939 -1.068469,-0.43846 -1.994233,-0.8249 -3.058173,-1.27424 -2.425692,-1.02446 -4.921056,-1.88846 -7.441557,-2.65042 -1.944567,-0.58784 -3.917343,-1.09552 -5.912469,-1.47811 -2.373967,-0.45524 -4.77437,-0.81486 -7.186709,-0.96843 -2.492521,-0.15866 -5.001142,-0.12464 -7.492526,0.051 -2.411238,0.16996 -4.820417,0.47484 -7.186709,0.96842 -2.369096,0.49416 -4.686776,1.22299 -6.982831,1.98781 -1.622515,0.54046 -3.190438,1.2329 -4.791139,1.8349 -1.101865,0.4144 -2.258289,0.70042 -3.313022,1.22327 -0.595419,0.29516 -1.03237,0.93026 -1.681996,1.07036 -0.469745,0.10132 -1.003132,0.0223 -1.427147,-0.20387 -0.403372,-0.21513 -0.781375,-0.58297 -0.917453,-1.01939 -0.158076,-0.50698 -0.01192,-1.09483 0.203879,-1.58006 0.190959,-0.42937 0.473256,-0.91703 0.917452,-1.07036 0.16378,-0.0565 0.336882,0.0895 0.509695,0.10194 z"
       style="fill:#ffffff;fill-rule:evenodd;stroke:none;stroke-width:0.2;stroke-linecap:round;stroke-linejoin:bevel;stroke-miterlimit:4;stroke-dasharray:none;stroke-opacity:1" />
  </g>
</svg>
